<svg width="32" height="32" viewBox="0 0 32 32" fill="none" xmlns="http://www.w3.org/2000/svg">
<path fill-rule="evenodd" clip-rule="evenodd" d="M27 16C27 22.0751 22.0751 27 16 27C9.92487 27 5 22.0751 5 16C5 9.92487 9.92487 5 16 5C22.0751 5 27 9.92487 27 16ZM16 25C20.9706 25 25 20.9706 25 16C25 11.0294 20.9706 7 16 7C11.0294 7 7 11.0294 7 16C7 20.9706 11.0294 25 16 25Z" fill="#1A1A1A"/>
<path d="M15.0667 18.6667C15.0667 17.7667 15.1474 17.1193 15.3087 16.7247C15.4696 16.3304 15.8111 15.9 16.3334 15.4333C16.7889 15.0333 17.136 14.686 17.3747 14.3913C17.6138 14.0971 17.7334 13.7611 17.7334 13.3833C17.7334 12.9278 17.5807 12.55 17.2754 12.25C16.9696 11.95 16.5445 11.8 16 11.8C15.4334 11.8 15.0027 11.9722 14.708 12.3167C14.4138 12.6611 14.2056 13.0111 14.0834 13.3667L12.3667 12.6333C12.6 11.9222 13.0278 11.3056 13.65 10.7833C14.2723 10.2611 15.0556 10 16 10C17.1667 10 18.064 10.3251 18.692 10.9753C19.3196 11.6251 19.6334 12.4056 19.6334 13.3167C19.6334 13.8722 19.514 14.3473 19.2754 14.742C19.0363 15.1362 18.6611 15.5833 18.15 16.0833C17.6056 16.6056 17.2751 17.0027 17.1587 17.2747C17.0418 17.5471 16.9834 18.0111 16.9834 18.6667H15.0667ZM16 22.6667C15.6334 22.6667 15.3196 22.5362 15.0587 22.2753C14.7974 22.014 14.6667 21.7 14.6667 21.3333C14.6667 20.9667 14.7974 20.6527 15.0587 20.3913C15.3196 20.1304 15.6334 20 16 20C16.3667 20 16.6807 20.1304 16.942 20.3913C17.2029 20.6527 17.3334 20.9667 17.3334 21.3333C17.3334 21.7 17.2029 22.014 16.942 22.2753C16.6807 22.5362 16.3667 22.6667 16 22.6667Z" fill="#1A1A1A"/>
</svg>
