<svg width="198" height="119" viewBox="0 0 198 119" fill="none" xmlns="http://www.w3.org/2000/svg">
<rect x="1.14258" y="40" width="39.1429" height="78" fill="white"/>
<rect x="1.14258" y="40" width="39.1429" height="78" stroke="#F0F0F0"/>
<rect x="40.2852" y="40" width="39.1429" height="78" fill="white"/>
<rect x="40.2852" y="40" width="39.1429" height="78" stroke="#F0F0F0"/>
<rect x="157.715" y="40" width="39.1429" height="78" fill="white"/>
<rect x="157.715" y="40" width="39.1429" height="78" stroke="#F0F0F0"/>
<rect x="118.572" y="40" width="39.1429" height="78" fill="white"/>
<rect x="118.572" y="40" width="39.1429" height="78" stroke="#F0F0F0"/>
<rect x="1.14258" y="1" width="39.1429" height="39" fill="#F63E2B"/>
<rect x="1.14258" y="1" width="39.1429" height="39" stroke="#F0F0F0"/>
<rect x="79" y="1" width="40" height="39" fill="#60CE93"/>
<rect x="79" y="1" width="40" height="39" stroke="#F0F0F0"/>
<rect x="79" y="1" width="40" height="39" fill="#60CE93"/>
<rect x="79" y="1" width="40" height="39" stroke="#F0F0F0"/>
<rect x="79" y="40" width="40" height="78" fill="white"/>
<rect x="79" y="40" width="40" height="78" stroke="#F0F0F0"/>
<rect x="157.715" y="1" width="39.1429" height="39" fill="#7B61FF"/>
<rect x="157.715" y="1" width="39.1429" height="39" stroke="#F0F0F0"/>
<rect x="40" y="1" width="39" height="117" fill="#F5B72B"/>
<rect x="40" y="1" width="39" height="117" stroke="#F0F0F0"/>
<rect x="119" y="1" width="39" height="117" fill="#4573F3"/>
<rect x="119" y="1" width="39" height="117" stroke="#F0F0F0"/>
</svg>
