<svg width="198" height="119" viewBox="0 0 198 119" fill="none" xmlns="http://www.w3.org/2000/svg">
<rect x="1.14258" y="40" width="39.1429" height="78" fill="white"/>
<rect x="1.14258" y="40" width="39.1429" height="78" stroke="#F0F0F0"/>
<rect x="40.2852" y="40" width="39.1429" height="78" fill="white"/>
<rect x="40.2852" y="40" width="39.1429" height="78" stroke="#F0F0F0"/>
<rect x="157.715" y="40" width="39.1429" height="78" fill="white"/>
<rect x="157.715" y="40" width="39.1429" height="78" stroke="#F0F0F0"/>
<rect x="118.572" y="40" width="39.1429" height="78" fill="white"/>
<rect x="118.572" y="40" width="39.1429" height="78" stroke="#F0F0F0"/>
<rect x="1.14258" y="1" width="39.1429" height="39" fill="white"/>
<rect x="1.14258" y="1" width="39.1429" height="39" stroke="#F0F0F0"/>
<rect x="79.4277" y="1" width="39.1429" height="117" fill="#60CE93"/>
<rect x="79.4277" y="1" width="39.1429" height="117" stroke="#F0F0F0"/>
<rect x="157.715" y="1" width="39.1429" height="39" fill="white"/>
<rect x="157.715" y="1" width="39.1429" height="39" stroke="#F0F0F0"/>
<rect x="40.2852" y="1" width="39.1429" height="39" fill="white"/>
<rect x="40.2852" y="1" width="39.1429" height="39" stroke="#F0F0F0"/>
<rect x="118.572" y="1" width="39.1429" height="39" fill="white"/>
<rect x="118.572" y="1" width="39.1429" height="39" stroke="#F0F0F0"/>
</svg>
