<svg width="32" height="32" viewBox="0 0 32 32" fill="none" xmlns="http://www.w3.org/2000/svg">
<path fill-rule="evenodd" clip-rule="evenodd" d="M20.3879 4.95634C18.2537 4.54201 16.0414 4.75461 14.0306 5.56749C12.0197 6.38039 10.3 7.75739 9.08965 9.52529C7.87924 11.2933 7.23278 13.3725 7.23278 15.5V20.3317L4.2552 17.4257L2.64209 19L8.37933 24.5993L14.1166 19L12.5035 17.4257L9.52589 20.3317V15.5C9.52589 13.8202 10.0362 12.1777 10.9931 10.78C11.9501 9.38224 13.3109 8.29192 14.9041 7.64784C16.4974 7.00373 18.251 6.83512 19.9428 7.16355C21.6346 7.49198 23.1879 8.30251 24.4064 9.49173C25.6248 10.6809 26.4539 12.1952 26.7897 13.8429C27.1255 15.4905 26.9532 17.1984 26.2943 18.7508C25.6354 20.3033 24.5192 21.6312 23.0858 22.566C21.6524 23.5007 19.9665 24 18.2414 24H17.9914V26.25H18.2414C20.4174 26.25 22.5449 25.6203 24.3551 24.4398C26.1654 23.2593 27.5772 21.5808 28.4112 19.6158C29.2452 17.6508 29.4635 15.4881 29.0383 13.4016C28.613 11.3152 27.5635 9.39947 26.0235 7.89647C24.4835 6.39353 22.5223 5.37068 20.3879 4.95634Z" fill="#1A1A1A"/>
</svg>
